<svg xmlns="http://www.w3.org/2000/svg" viewBox="0 0 444.02 55.4"><g id="Layer_2" data-name="Layer 2"><g id="Layer_1-2" data-name="Layer 1"><path d="M42.82,26.19A18,18,0,0,0,38,23.52a45.44,45.44,0,0,0-5.5-1.7q-2.8-.69-5.49-1.18a48.29,48.29,0,0,1-4.77-1.09,12,12,0,0,1-3.39-1.46,2.7,2.7,0,0,1-1.28-2.32,2.8,2.8,0,0,1,1.68-2.33,10.31,10.31,0,0,1,5.09-1,9.23,9.23,0,0,1,3,.43,5.86,5.86,0,0,1,2,1.16,4.37,4.37,0,0,1,1.16,1.64,5.34,5.34,0,0,1,.36,1.94v.29H46.27V17a13.73,13.73,0,0,0-1.89-7,15,15,0,0,0-4.87-4.91,22.71,22.71,0,0,0-7.13-2.86,38.94,38.94,0,0,0-8.67-.92A41.38,41.38,0,0,0,15,2.18,23.3,23.3,0,0,0,7.74,5a15.09,15.09,0,0,0-5,5.05A14.43,14.43,0,0,0,.83,17.62a14.21,14.21,0,0,0,1.28,6.32A13.34,13.34,0,0,0,5.52,28.3a18.19,18.19,0,0,0,4.83,2.88A42.48,42.48,0,0,0,15.87,33q2.8.72,5.52,1.23c1.81.34,3.42.7,4.83,1.1a12.39,12.39,0,0,1,3.4,1.44A2.52,2.52,0,0,1,30.91,39a2.55,2.55,0,0,1-.7,1.88,4.28,4.28,0,0,1-1.78,1,9.85,9.85,0,0,1-2.33.41c-.85.07-1.65.1-2.4.1a21.92,21.92,0,0,1-3.4-.24,6.25,6.25,0,0,1-2.59-.94,4.56,4.56,0,0,1-1.64-2,7.91,7.91,0,0,1-.58-3.32H0a18.61,18.61,0,0,0,1.92,9,14.44,14.44,0,0,0,5.3,5.58,22.89,22.89,0,0,0,8,2.84,58.8,58.8,0,0,0,10,.8,38.16,38.16,0,0,0,8.93-1A20.28,20.28,0,0,0,41.24,50,14.82,14.82,0,0,0,46,44.44a18,18,0,0,0,1.7-8.13,13,13,0,0,0-1.39-6A12.86,12.86,0,0,0,42.82,26.19Z"/><polygon points="98.15 2.19 48.35 2.19 48.35 15.22 65.1 15.22 65.1 53.2 81.5 53.2 81.5 15.22 98.15 15.22 98.15 2.19"/><path d="M108,2.19l-18.65,51h16.76L108.32,46h17.85l2.17,7.21h17.34l-18.6-51Zm3.69,32.4,5.4-18.17h.32l5.32,18.17Z"/><polygon points="136.53 15.22 153.28 15.22 153.28 53.2 169.68 53.2 169.68 15.22 186.33 15.22 186.33 2.19 136.53 2.19 136.53 15.22"/><path d="M234.12,30.3a12.86,12.86,0,0,0-3.46-4.1,18,18,0,0,0-4.83-2.68,48.05,48.05,0,0,0-5.51-1.7q-2.79-.69-5.48-1.18a48.7,48.7,0,0,1-4.78-1.08,12,12,0,0,1-3.38-1.47,2.67,2.67,0,0,1-1.29-2.31,2.8,2.8,0,0,1,1.68-2.34,10.31,10.31,0,0,1,5.09-1,9.21,9.21,0,0,1,3,.44,5.84,5.84,0,0,1,2,1.15,4.33,4.33,0,0,1,1.16,1.65,5.25,5.25,0,0,1,.36,1.93v.3H234.1v-.87A13.86,13.86,0,0,0,232.21,10a14.9,14.9,0,0,0-4.87-4.9,22.38,22.38,0,0,0-7.13-2.86,38.87,38.87,0,0,0-8.67-.93,42.2,42.2,0,0,0-8.67.88A23.25,23.25,0,0,0,195.58,5a14.82,14.82,0,0,0-5,5.05,14.28,14.28,0,0,0-1.89,7.56A14.07,14.07,0,0,0,190,23.94a13.49,13.49,0,0,0,3.4,4.37,18.25,18.25,0,0,0,4.84,2.88A43.47,43.47,0,0,0,203.71,33c1.87.49,3.71.89,5.52,1.24s3.42.7,4.83,1.1a12.4,12.4,0,0,1,3.4,1.43,2.67,2.67,0,0,1,.59,4.09,4.41,4.41,0,0,1-1.78,1,11,11,0,0,1-2.33.41c-.84.06-1.64.09-2.39.09a21.9,21.9,0,0,1-3.4-.23,6.53,6.53,0,0,1-2.6-.94,4.6,4.6,0,0,1-1.64-2,7.86,7.86,0,0,1-.58-3.31H187.84a18.61,18.61,0,0,0,1.92,9,14.49,14.49,0,0,0,5.3,5.57,22.77,22.77,0,0,0,8,2.84,58.89,58.89,0,0,0,10,.8,38.11,38.11,0,0,0,8.93-1A20.43,20.43,0,0,0,229.09,50a14.84,14.84,0,0,0,4.72-5.54,17.81,17.81,0,0,0,1.71-8.13A13.23,13.23,0,0,0,234.12,30.3Z"/><polygon id="Path-2" points="283.96 36.48 299.72 19.28 303.66 7.35 316.4 1.9 328.58 10.45 333.96 24.31 327.19 36.73 315.42 39.28 306.67 52.07 301.22 35.97 283.96 36.48" fill="#565759"/><path d="M362.55,31.62h-.3L354.55,2.2H331.42V13.08a27.8,27.8,0,0,0-45.88-1.89,10.44,10.44,0,0,0-.6-1.52,12.41,12.41,0,0,0-3-4,14.2,14.2,0,0,0-4.46-2.59A15.84,15.84,0,0,0,272,2.19H238v51h34.38a16.91,16.91,0,0,0,5.78-1,14.5,14.5,0,0,0,4.71-2.75,12.67,12.67,0,0,0,3.16-4.29c0-.07.06-.14.09-.2a27.78,27.78,0,0,0,45.27-2.67V53.2h15.06V34.81c0-1.93-.08-3.86-.22-5.78s-.3-3.63-.47-5.16c-.19-1.78-.41-3.49-.65-5.14h.29l9.48,34.46h12.82l9.41-34.53h.33c-.24,1.64-.45,3.37-.62,5.18-.14,1.54-.28,3.27-.4,5.19s-.18,3.84-.18,5.77V53.19H392.5V2.2H370.2ZM254.4,13.38h11.25a3.75,3.75,0,0,1,1.49.31,3.71,3.71,0,0,1,1.19.85,4.06,4.06,0,0,1,.81,1.27,3.75,3.75,0,0,1,.31,1.51v.73a4.33,4.33,0,0,1-.29,1.57,4,4,0,0,1-.79,1.29,3.84,3.84,0,0,1-1.21.85,3.71,3.71,0,0,1-1.51.31H254.4V13.38Zm16.25,24a4.34,4.34,0,0,1-.29,1.6,3.77,3.77,0,0,1-.8,1.25,3.83,3.83,0,0,1-1.21.83,3.63,3.63,0,0,1-1.5.31H254.4V32.6h12.45a3.63,3.63,0,0,1,1.5.31,3.73,3.73,0,0,1,1.21.85,4.15,4.15,0,0,1,.8,1.27,4.2,4.2,0,0,1,.29,1.56Zm6.87-10.46v-.29a15.69,15.69,0,0,0,2.65-1c-.05.7-.09,1.41-.09,2.13A15.55,15.55,0,0,0,277.52,26.88Zm53.87,10.74a25.38,25.38,0,0,1-5.48,8.11,25.56,25.56,0,0,1-36.14,0A26,26,0,0,1,287,42.4a14.63,14.63,0,0,0,.26-2.77,15.78,15.78,0,0,0-.78-5.25,11.06,11.06,0,0,0-2.1-3.73,10.16,10.16,0,0,0-2-1.8c0-.38,0-.76,0-1.15a26.11,26.11,0,0,1,.27-3.76,10,10,0,0,0,1-1,11,11,0,0,0,1.87-3.43,14.83,14.83,0,0,0,.68-4.79c0-.13,0-.25,0-.37a26,26,0,0,1,3.71-4.69,25.55,25.55,0,0,1,36.14,0,25.38,25.38,0,0,1,5.48,8.11s0,0,0,.06V37.57Z" fill="#da2429"/><path d="M443.24,34.37a11.18,11.18,0,0,0-2.1-3.72,10.17,10.17,0,0,0-3.08-2.43,15.13,15.13,0,0,0-3.74-1.34v-.29a14.8,14.8,0,0,0,3.27-1.38,9.67,9.67,0,0,0,2.72-2.28,10.6,10.6,0,0,0,1.87-3.42,15.13,15.13,0,0,0,.68-4.8,11.36,11.36,0,0,0-1.12-5.05,12.41,12.41,0,0,0-3-4,14.14,14.14,0,0,0-4.47-2.59,15.83,15.83,0,0,0-5.45-.92H394.83v51h34.39a16.89,16.89,0,0,0,5.77-1,14.35,14.35,0,0,0,4.7-2.75,12.69,12.69,0,0,0,3.17-4.29A13.16,13.16,0,0,0,444,39.62,15.86,15.86,0,0,0,443.24,34.37Zm-32.05-21h11.26a3.66,3.66,0,0,1,2.68,1.16,4.06,4.06,0,0,1,.81,1.27,3.88,3.88,0,0,1,.31,1.51v.73a4.37,4.37,0,0,1-.29,1.57,3.85,3.85,0,0,1-.8,1.29,3.56,3.56,0,0,1-1.21.84,3.63,3.63,0,0,1-1.5.31H411.19V13.38Zm16.25,24a4.3,4.3,0,0,1-.29,1.6,3.92,3.92,0,0,1-.79,1.25,3.72,3.72,0,0,1-1.22.83,3.63,3.63,0,0,1-1.5.31H411.19V32.6h12.45a3.63,3.63,0,0,1,1.5.31,3.53,3.53,0,0,1,1.22.85,4.08,4.08,0,0,1,.79,1.26,4.28,4.28,0,0,1,.29,1.56Z" fill="#da2429"/><path d="M307.84,5.85A21.85,21.85,0,1,0,329.73,27.7,21.87,21.87,0,0,0,307.84,5.85Zm19.7,21.85a19.71,19.71,0,0,1-37.85,7.65A19.69,19.69,0,0,1,315.5,9.59a19.24,19.24,0,0,1,6.26,4.21,19.56,19.56,0,0,1,5.78,13.9Z" fill="#da2429"/><path d="M307.84,11.28A16.33,16.33,0,1,0,324.2,27.61,16.36,16.36,0,0,0,307.84,11.28Zm10,26.33a14.14,14.14,0,1,1,4.14-10A14.11,14.11,0,0,1,317.86,37.61Z" fill="#da2429"/><path d="M307.84,16.83a10.79,10.79,0,1,0,10.81,10.78A10.8,10.8,0,0,0,307.84,16.83Zm6.09,16.85a8.58,8.58,0,1,1,2.52-6.07A8.55,8.55,0,0,1,313.93,33.68Z" fill="#da2429"/><path d="M307.84,22.42a5.19,5.19,0,1,0,5.2,5.19A5.2,5.2,0,0,0,307.84,22.42Zm0,8.18a3,3,0,1,1,3-3A3,3,0,0,1,307.84,30.6Z" fill="#da2429"/></g></g></svg>